<svg version="1.2" xmlns="http://www.w3.org/2000/svg" viewBox="0 0 960 960" width="24" height="24"><style>.a{fill:#efde58}</style><path class="a" d="m290 840h-170v-170l175-175-215-215 200-200 216 216 151-152q12-12 27-18 15-6 31-6 16 0 31 6 15 6 27 18l53 54q12 12 18 27 6 15 6 31 0 16-6 30.5-6 14.5-18 26.5l-151 152 215 215-200 200-215-215zm390-73l87-87-45-45-44 43-56-56 43-44-57-56-86 86zm24-567l57 57zm-352 238l86-87-56-57-44 44-56-56 43-44-45-45-87 87zm-152 322h56l392-391-57-57-391 392zm420-419l-29-29 57 57z"/></svg>