<svg version="1.2" xmlns="http://www.w3.org/2000/svg" viewBox="0 0 960 960" width="24" height="24"><style>.a{fill:#e2aacd}</style><path class="a" d="m160 800q-33 0-56.5-23.5-23.5-23.5-23.5-56.5v-480q0-33 23.5-56.5 23.5-23.5 56.5-23.5h640q33 0 56.5 23.5 23.5 23.5 23.5 56.5v480q0 33-23.5 56.5-23.5 23.5-56.5 23.5zm0-80h640v-480h-640zm40-80h320v-22q0-45-44-71.5-44-26.5-116-26.5-72 0-116 26.5-44 26.5-44 71.5zm160-160q33 0 56.5-23.5 23.5-23.5 23.5-56.5 0-33-23.5-56.5-23.5-23.5-56.5-23.5-33 0-56.5 23.5-23.5 23.5-23.5 56.5 0 33 23.5 56.5 23.5 23.5 56.5 23.5zm200 40h200v-80h-200zm0-120h200v-80h-200zm-400 320v-480z"/></svg>