<svg version="1.2" xmlns="http://www.w3.org/2000/svg" viewBox="0 0 960 960" width="24" height="24"><style>.a{fill:#a9aacf}</style><path class="a" d="m240 920v-309q-38-42-59-96-21-54-21-115 0-134 93-227 93-93 227-93 134 0 227 93 93 93 93 227 0 61-21 115-21 54-59 96v309l-240-80zm240-280q100 0 170-70 70-70 70-170 0-100-70-170-70-70-170-70-100 0-170 70-70 70-70 170 0 100 70 170 70 70 170 70zm-93-92l35-114-92-74h114l36-112 36 112h114l-93 74 35 114-92-71zm-67 253l160-41 160 41v-124q-35 20-75.5 31.5-40.5 11.5-84.5 11.5-44 0-84.5-11.5-40.5-11.5-75.5-31.5z"/></svg>